<svg xmlns="http://www.w3.org/2000/svg" xmlns:xlink="http://www.w3.org/1999/xlink" width="261.812" height="200"><defs><path d="M1.422-4.9H-4.66l-.724 1.675c-.237.559-.355 1.02-.355 1.384 0 .483.194.838.584 1.067.228.135.791.237 1.688.304V0H-9.19v-.47c.617-.093 1.125-.349 1.523-.768.398-.419.889-1.284 1.473-2.596L-.038-17.57h.241L6.411-3.453c.593 1.337 1.08 2.18 1.46 2.526.288.263.694.415 1.219.457V0H.762v-.47h.342c.67 0 1.139-.093 1.41-.279.186-.135.279-.33.279-.584 0-.152-.025-.309-.076-.47-.017-.076-.144-.393-.381-.952L1.422-4.9zM.99-5.84l-2.564-5.929-2.64 5.93H.99z" id="f"/><path d="M4.977-17.608l.14 5.738h-.521c-.246-1.439-.849-2.596-1.81-3.472-.96-.876-1.999-1.314-3.116-1.314-.863 0-1.547.23-2.05.692-.504.46-.756.992-.756 1.593 0 .38.09.72.267 1.016.245.397.639.79 1.18 1.18.398.28 1.317.775 2.755 1.486 2.015.99 3.373 1.925 4.076 2.805a4.746 4.746 0 011.04 3.022c0 1.439-.56 2.676-1.682 3.713C3.38-.112 1.955.406.23.406A6.893 6.893 0 01-1.308.241C-1.79.131-2.395-.076-3.123-.38c-.406-.17-.74-.254-1.003-.254-.22 0-.453.085-.698.254-.246.17-.445.428-.597.775h-.47v-6.5h.47c.372 1.828 1.09 3.222 2.152 4.183 1.062.96 2.207 1.44 3.434 1.44.948 0 1.703-.258 2.266-.774s.844-1.117.844-1.803c0-.406-.108-.8-.323-1.18-.216-.381-.544-.743-.984-1.086-.44-.342-1.219-.789-2.336-1.339-1.566-.77-2.692-1.426-3.377-1.968-.686-.541-1.213-1.147-1.58-1.815a4.503 4.503 0 01-.553-2.21c0-1.37.504-2.538 1.51-3.503 1.008-.965 2.278-1.447 3.81-1.447.558 0 1.1.067 1.624.203.398.101.883.29 1.454.565.571.275.971.412 1.2.412.22 0 .393-.067.52-.203.127-.135.246-.461.356-.977h.38z" id="d"/><path d="M-1.6-16.225v7.008h.343c1.092 0 1.883-.343 2.374-1.028.491-.686.804-1.697.94-3.034h.482v9.013h-.482c-.102-.981-.316-1.785-.641-2.412C1.09-7.304.71-7.725.279-7.94c-.431-.216-1.058-.324-1.879-.324v4.85c0 .948.04 1.528.121 1.74.08.21.23.384.45.52.22.135.576.203 1.067.203h1.028c1.608 0 2.897-.373 3.866-1.117.97-.745 1.665-1.88 2.089-3.403h.47L6.715 0h-14.88v-.47h.572c.5 0 .902-.089 1.206-.266.22-.119.39-.322.508-.61.093-.203.14-.736.14-1.6V-14.27c0-.778-.021-1.256-.064-1.434a1.215 1.215 0 00-.47-.686c-.321-.237-.761-.355-1.32-.355h-.571v-.47h14.41v5.091h-.483c-.246-1.244-.59-2.137-1.035-2.679-.444-.541-1.073-.94-1.885-1.193-.474-.152-1.363-.229-2.666-.229H-1.6z" id="e"/><path d="M7.719-17.215v4.66h-.457c-.271-1.076-.572-1.848-.902-2.318-.33-.47-.783-.844-1.358-1.123-.322-.152-.884-.229-1.689-.229H2.031v13.28c0 .88.049 1.43.146 1.65.098.22.288.413.572.578.283.165.67.247 1.161.247h.571V0h-9.013v-.47h.571c.5 0 .901-.089 1.206-.266.22-.119.394-.322.52-.61.094-.203.14-.736.14-1.6v-13.279h-1.244c-1.16 0-2.001.246-2.526.737-.737.685-1.202 1.663-1.397 2.932h-.482v-4.659H7.719z" id="g"/><path d="M7.731-6.043L7.084 0H-8.201v-.47h.571c.5 0 .901-.089 1.206-.266.22-.119.39-.322.508-.61.093-.203.14-.736.14-1.6V-14.27c0-.88-.047-1.43-.14-1.65-.093-.22-.281-.413-.565-.578-.283-.165-.666-.247-1.149-.247h-.57v-.47H.978v.47h-.75c-.499 0-.9.089-1.206.266-.22.119-.393.322-.52.61-.093.203-.14.736-.14 1.6v10.968c0 .88.051 1.441.153 1.682.101.242.3.421.596.54.212.076.724.114 1.536.114h1.435c.914 0 1.676-.16 2.285-.482.61-.322 1.136-.83 1.58-1.524.445-.694.866-1.718 1.264-3.072h.52z" id="h"/><path d="M7.96-17.608v5.966h-.495c-.373-1.557-1.067-2.75-2.082-3.58-1.016-.83-2.167-1.244-3.453-1.244a5.11 5.11 0 00-2.958.927 5.404 5.404 0 00-1.968 2.425c-.533 1.278-.8 2.7-.8 4.265 0 1.54.195 2.944.584 4.209.39 1.265.999 2.222 1.828 2.869.83.647 1.904.971 3.225.971 1.083 0 2.075-.237 2.977-.71.901-.475 1.851-1.291 2.85-2.45v1.484c-.965 1.008-1.97 1.738-3.015 2.19C3.608.167 2.387.394.99.394-.846.394-2.478.025-3.904-.711a7.807 7.807 0 01-3.3-3.174A8.86 8.86 0 01-8.367-8.29c0-1.642.43-3.2 1.288-4.672A9.08 9.08 0 01-3.6-16.39a9.424 9.424 0 014.653-1.218c1.21 0 2.488.262 3.834.787.778.304 1.273.457 1.485.457.27 0 .506-.1.705-.299.199-.198.328-.514.387-.945h.495z" id="i"/><path d="M4.469-.47V0h-9.001v-.47h.571c.5 0 .901-.089 1.206-.266.22-.119.39-.322.508-.61.093-.203.14-.736.14-1.6V-14.27c0-.88-.047-1.43-.14-1.65-.093-.22-.281-.413-.565-.578-.284-.165-.667-.247-1.149-.247h-.571v-.47h9v.47h-.57c-.5 0-.902.089-1.207.266-.22.119-.393.322-.52.61-.093.203-.14.736-.14 1.6v11.324c0 .88.049 1.43.146 1.65.098.22.288.413.572.578.283.165.666.247 1.148.247h.572z" id="j"/><path d="M9.09-17.215v.47c-.567.076-1.003.241-1.308.495-.423.355-1.092 1.325-2.006 2.907L2.044-7.109v4.164c0 .888.046 1.44.14 1.656.093.216.277.407.552.572.275.165.64.247 1.098.247h.965V0h-9.661v-.47h.901c.508 0 .91-.089 1.206-.266.22-.119.394-.322.52-.61.094-.203.14-.736.14-1.6v-3.452l-4.05-7.376c-.804-1.456-1.37-2.313-1.7-2.571-.33-.258-.77-.392-1.321-.4v-.47h8.252v.47h-.368c-.5 0-.849.072-1.048.216-.198.144-.298.296-.298.457 0 .304.339 1.07 1.016 2.298l3.11 5.7 3.098-5.193c.77-1.27 1.155-2.111 1.155-2.526 0-.228-.11-.419-.33-.571-.288-.212-.817-.339-1.587-.381v-.47H9.09z" id="k"/><path d="M-.063-17.456c2.742-.102 4.97.698 6.684 2.4 1.713 1.7 2.57 3.83 2.57 6.385 0 2.184-.639 4.105-1.917 5.764C5.582-.707 3.191.393.102.393c-3.098 0-5.493-1.049-7.186-3.148C-8.421-4.414-9.09-6.382-9.09-8.658c0-2.556.87-4.687 2.609-6.392 1.74-1.706 3.878-2.508 6.418-2.406zm.152.812c-1.574 0-2.772.804-3.593 2.413-.669 1.32-1.003 3.216-1.003 5.687 0 2.937.516 5.108 1.549 6.513C-2.238-1.05-1.231-.56.063-.56c.872 0 1.6-.211 2.184-.634.745-.542 1.325-1.407 1.74-2.597.414-1.189.621-2.74.621-4.652 0-2.277-.211-3.98-.634-5.11-.424-1.13-.963-1.928-1.619-2.393-.656-.466-1.411-.699-2.266-.699z" id="l"/><path d="M-.8-16.225v7.072h.495c.762 0 1.384-.115 1.867-.343.482-.229.89-.614 1.225-1.155.334-.542.552-1.274.653-2.197h.445v8.646H3.44c-.16-1.634-.598-2.71-1.314-3.231a4.028 4.028 0 00-2.43-.78H-.8v5.268c0 .88.049 1.43.146 1.65.098.22.288.413.571.578.284.165.667.247 1.15.247h.57V0h-9v-.47h.571c.5 0 .901-.089 1.206-.266.22-.119.39-.322.508-.61.093-.203.14-.736.14-1.6V-14.27c0-.88-.047-1.43-.14-1.65-.093-.22-.282-.413-.565-.578-.284-.165-.667-.247-1.149-.247h-.571v-.47H7.16v4.939h-.52c-.119-1.16-.421-2.019-.908-2.578-.487-.558-1.191-.952-2.114-1.18-.508-.127-1.447-.19-2.818-.19H-.8z" id="m"/><path d="M7.833-17.608v6.068h-.47c-.567-1.659-1.417-2.92-2.551-3.783-1.135-.864-2.375-1.295-3.72-1.295-1.287 0-2.357.362-3.212 1.085-.855.724-1.46 1.733-1.816 3.028a14.99 14.99 0 00-.533 3.986c0 1.65.195 3.098.584 4.342.39 1.244 1.018 2.158 1.885 2.742.868.584 1.898.876 3.092.876.414 0 .84-.044 1.276-.133a9.089 9.089 0 001.339-.387v-3.58c0-.677-.047-1.115-.14-1.314-.093-.199-.285-.379-.577-.54-.292-.16-.646-.24-1.06-.24h-.445v-.47h8.367v.47c-.635.041-1.077.128-1.327.26-.25.13-.442.348-.578.653-.076.161-.114.555-.114 1.18v3.58c-1.1.492-2.245.862-3.434 1.112a17.95 17.95 0 01-3.7.374c-1.634 0-2.99-.222-4.07-.666a10.16 10.16 0 01-2.856-1.752 8.275 8.275 0 01-1.936-2.444c-.593-1.168-.889-2.476-.889-3.923 0-2.59.91-4.778 2.73-6.563 1.82-1.786 4.109-2.68 6.868-2.68.855 0 1.625.069 2.31.204.373.068.976.26 1.81.578.833.317 1.326.476 1.479.476a.997.997 0 00.66-.26c.203-.174.389-.502.558-.984h.47z" id="n"/><path d="M-9.052 0v-.47h.572c.499 0 .882-.078 1.148-.235a1.44 1.44 0 00.59-.64c.077-.178.115-.712.115-1.6V-14.27c0-.88-.047-1.43-.14-1.65-.093-.22-.281-.413-.565-.578-.283-.165-.666-.247-1.148-.247h-.572v-.47h7.706c2.057 0 3.712.28 4.964.838 1.532.686 2.694 1.722 3.485 3.11.791 1.388 1.187 2.958 1.187 4.71 0 1.21-.195 2.326-.584 3.346-.39 1.02-.893 1.862-1.51 2.526a7.398 7.398 0 01-2.14 1.6c-.808.402-1.796.713-2.964.933C.576-.051-.237 0-1.346 0h-7.706zm6.564-16.237v13.431c0 .711.034 1.147.101 1.308a.73.73 0 00.343.368c.229.127.559.19.99.19 1.414 0 2.493-.482 3.238-1.447C3.199-3.69 3.707-5.713 3.707-8.455c0-2.21-.347-3.974-1.041-5.294-.55-1.033-1.257-1.735-2.12-2.107-.61-.263-1.62-.39-3.034-.381z" id="o"/><path d="M12.771-17.215v.47a1.625 1.625 0 00-.812.266c-.22.153-.415.386-.584.699-.05.101-.317.757-.8 1.968L5.18.393h-.495L.419-10.702-4.278.394h-.47L-10.41-13.66c-.576-1.414-.978-2.268-1.206-2.565-.229-.296-.614-.47-1.155-.52v-.47h7.464v.47c-.6.017-1 .108-1.2.273a.769.769 0 00-.298.616c0 .321.208 1.002.622 2.043l3.377 8.354 2.704-6.525-.71-1.829c-.39-.998-.69-1.665-.902-1.999-.211-.334-.455-.573-.73-.717-.275-.144-.68-.216-1.212-.216v-.47h8.34v.47c-.583.008-1.002.055-1.256.14a.824.824 0 00-.42.298.789.789 0 00-.152.476c0 .195.19.791.572 1.79l3.135 8.15 2.806-7.376c.296-.761.478-1.282.546-1.561.068-.28.102-.538.102-.775 0-.347-.119-.62-.356-.818-.237-.2-.69-.307-1.358-.324v-.47h4.468z" id="p"/><clipPath id="b"><circle cx="337.5" cy="281.5" r="53.5"/></clipPath><clipPath id="c"><path d="M337.5 223.5h100v-60h-200v100l55 55zm0 116h-100v60h200v-100l-55-55z"/></clipPath><clipPath id="a"><path d="M170 378l45 15 85-265 20-40h215v385H170v-95z"/></clipPath></defs><path fill="#fff" d="M0 0h261.812v200H0z"/><path d="M527.5 281.5a190 190 0 11-380 0 190 190 0 11380 0zm-20 0a170 170 0 11-340 0 170 170 0 11340 0z" transform="scale(.35524)" clip-path="url(#a)" fill="#00839a" fill-rule="evenodd"/><path d="M119.36 159.503l-10.301 9.591-14.92-5.328 8.857-7.184.024.079 16.34 2.842zm50.445-27.354c.355 6.75-.356 12.789-2.842 19.538l-13.855 9.592 3.198-15.63 13.499-13.5zm19.538-35.524l-2.132 17.762-11.367-12.788 1.42-18.118 12.079 13.144zM157.37 41.918l16.696 13.855c-5.683-1.066-11.012-1.777-16.696.355L141.03 44.76c5.328-1.42 10.301-2.486 16.34-2.842z" fill="#fff"/><g transform="scale(.35524)" clip-path="url(#b)" fill="#00839a"><path d="M353 226h10v110h-10V226zm-18 0c0 18 3 32 16.071 40.036l-.089 17.946C338 274 329.128 259.54 329 241c0-2-3-1-5 0-2 0-9 8-12 11-1 1-3 1-3 3s3 2 7 4c2 1 5.875 3.196 6.143 3.821.268.625-.143 2.179-3.143 3.179s-2-2-4-1-2 2-3 4-3 2-4 1 1-1.336 1-4c0-3-.649-4-2-4-1 0-1.553-.342-2 1-1 3-2.426 4.01-3 5-1.122 1.934-2.29 4.58-3 6-1 2-2 2-2 3 0 3 5.143 2.16 5.143 2.16l-2.054 4.554 3.215 2.857L300 288s2 1 2 5c0 2-2 3-2 6 0 5 4 6 6 5s10.062-1 13-1c7 0 12-2 12-6 0-9 3-18 3-24l5 6v39c0 7-3 16-7 20h-12c7.253-5.623 11-12.026 11-21 0-2-2-8-5-8h-15s2 0 2 3c0 1 0 3 2 5s3 4 3 6 1 3 1 4c0 4-1 7-5 11h-33V226h54z"/><path d="M342 282l9 7v49h-14c3-5 5-11 5-18v-38zm6-56c0 11 0 24 3 35-11-5-14-26-14-35m55 26v45c-3-20-14-41-27-46v-25"/><path d="M365 254c14 5 25 40 25 49l-10 18c0-17-4-47-15-56v-11"/><path d="M365 269c11 12 12 47 12 54l-12 9z"/></g><g fill="#00839a" fill-rule="evenodd"><path d="M428.5 281.5a91 91 0 11-182 0 91 91 0 11182 0zm-33 0a58 58 0 11-116 0 58 58 0 11116 0z" clip-path="url(#c)" transform="scale(.35524)"/><g transform="translate(119.893 100) scale(.35524)"><circle cx="105" r="6"/><circle cx="-105" r="6"/></g></g><g transform="translate(119.893 100) scale(.35524)" fill="#00839a"><use transform="rotate(30.3 -214.214 -58)" width="737" height="563" xlink:href="#d"/><use transform="rotate(21 -312.94 -58)" width="737" height="563" xlink:href="#e"/><use transform="rotate(10.4 -637.313 -58)" width="737" height="563" xlink:href="#f"/><use transform="rotate(1 -6646.14 -58.002)" width="737" height="563" xlink:href="#g"/><use transform="rotate(-9.2 720.872 -58)" width="737" height="563" xlink:href="#g"/><use transform="rotate(-19.3 341.106 -58)" width="737" height="563" xlink:href="#h"/><use transform="rotate(-29.4 221.083 -58)" width="737" height="563" xlink:href="#e"/><use transform="rotate(-71.2 -68.442 49)" width="737" height="563" xlink:href="#i"/><use transform="rotate(-62.8 -80.275 49)" width="737" height="563" xlink:href="#j"/><use transform="rotate(-54.72 -94.692 49)" width="737" height="563" xlink:href="#g"/><use transform="rotate(-44.2 -120.672 49)" width="737" height="563" xlink:href="#k"/><use transform="rotate(-29.53 -185.917 49)" width="737" height="563" xlink:href="#l"/><use transform="rotate(-19 -292.812 49)" width="737" height="563" xlink:href="#m"/><use transform="rotate(-5.2 -1079.064 49)" width="737" height="563" xlink:href="#n"/><use transform="rotate(6.62 847.241 49)" width="737" height="563" xlink:href="#l"/><use transform="rotate(18.4 302.535 49)" width="737" height="563" xlink:href="#l"/><use transform="rotate(29.85 183.833 49)" width="737" height="563" xlink:href="#o"/><use transform="rotate(42.9 124.713 49)" width="737" height="563" xlink:href="#p"/><use transform="rotate(53.5 97.214 49)" width="737" height="563" xlink:href="#j"/><use transform="rotate(61.5 82.362 49)" width="737" height="563" xlink:href="#h"/><use transform="rotate(71.6 67.94 49)" width="737" height="563" xlink:href="#h"/></g><g fill="#00839a" fill-rule="evenodd" stroke-width="0"><path d="M261.812 0H102.309C80.64 0 70.337 28.774 50.444 28.774c-8.31 0-10.657-5.328-10.302-11.722-3.197.355-6.039 1.776-7.815 3.552 2.842 5.329 11.012 12.789 22.38 12.789 14.654 0 25.222-13.5 35.88-13.5 8.17 0 9.946 6.75 9.946 6.75 14.92-13.144 38.01-9.591 43.34 8.17l14.209 7.105c17.762-1.776 39.076 12.434 30.195 39.077l1.776 15.985c12.434 10.658 5.329 37.3-10.657 40.853l-12.433 14.21c-1.776 17.762-26.643 30.195-42.63 17.762h-17.761c-15.986 8.88-39.076-3.553-37.3-21.315l-12.434-14.21c-9.052-5.16-15.985-14.209-12.788-29.129-12.078 13.144-29.84 9.591-24.512-2.842-6.75.71-13.499 3.908-19.538 7.105V200h261.812V0"/><path d="M140.32 33.037c-3.553-9.591-15.63-11.367-19.894-11.367-31.616 0-17.406 40.142-43.339 40.142-23.09 0-26.288 22.735-40.497 22.735-5.684 0-12.078-4.618-10.657-12.078l-6.75 2.842c1.066 2.131 5.684 13.144 21.314 13.144 17.052 0 14.565-16.341 35.17-16.697 36.234-.71 23.8-45.825 45.825-45.825 5.684 0 7.815 4.973 7.815 4.973l11.013 2.131zM72.114 150.622l7.104 6.039s.356 3.907 4.974 7.105c4.618 3.197 12.433 1.776 17.051-2.842 7.816-7.816 17.407-15.276 32.327-15.276 5.329 0 11.013 2.487 14.565 5.684l-12.789 5.329c-4.973-3.908-14.92-1.421-23.445 7.105-9.237 9.236-24.157 5.328-28.42 2.841-4.263-2.486-11.367-7.104-11.367-15.985z"/><path d="M127.531 168.739l11.723-2.132c1.066 1.066 3.908 1.421 6.394 1.421 8.881 0 12.789-13.143 12.789-28.419 0-17.762 7.105-31.616 19.893-36.945l-2.131 13.5c-8.17 3.552-9.592 16.34-9.592 21.669 0 22.38-13.143 34.458-28.063 34.458-4.263 0-8.881-1.42-11.013-3.552z"/><path d="M184.725 125.4c2.842-1.777 4.973-5.329 4.973-8.17 0-12.79-38.721-29.13-29.485-59.326 3.197 3.552 7.46 8.526 9.236 11.723-3.197 15.275 23.624 23.79 24.157 43.694 0 11.202-10.336 21.471-13.5 22.025 1.422-2.131 4.263-8.17 4.619-9.946z"/><path d="M181.528 66.785c1.42-2.842.227-6.522-2.132-8.88-3.197-3.198-7.105-5.33-15.986-5.33-9.883 0-15.868 3.553-23.09 3.553-13.512 0-25.578-2.487-30.906-12.789 3.197-.71 12.788-1.42 16.696-.71 1.631 1.03 4.973 3.907 10.657 3.907 8.881 0 11.723-2.842 23.09-2.842 12.434 0 19.285 6.651 23.091 10.658 6.75 7.104 6.395 18.827 3.553 23.446-1.066-3.908-3.553-8.526-4.973-11.013zm-93.784 81.35c-6.039-19.183-40.852-7.815-40.852-35.169 0-9.883 6.039-23.8 18.117-23.8 11.012 0 10.657 16.695 1.42 17.05 2.132-3.196 1.067-7.46-2.486-7.46-3.552 0-7.815 2.132-7.815 13.5 0 17.762 32.682 4.263 41.563 41.563-2.487-1.066-8.526-4.618-9.947-5.684zM0 28.42c10.657 0 25.577-25.933 45.826-25.933 8.17 0 12.849 7.104 12.789 13.499-.08 8.415-7.46 11.367-12.79 9.591 3.553-1.42 5.593-12.102-3.196-12.078C29.485 13.535 16.608 36.43 0 35.524v-7.105zm0 21.669c12.433 0 19.538-17.762 36.945-17.762 8.17 0 14.21 5.328 14.21 11.723 0 8.17-7.816 10.302-13.144 8.525 2.131-2.13 2.842-9.236-4.974-9.236C20.604 43.34 17.762 57.904 0 57.904V50.09zM0 73.18c8.881-2.843 14.565-13.855 28.774-13.855 8.17 0 14.27 5.684 14.21 12.078-.08 8.415-7.815 12.078-12.789 7.815 2.132-1.42 4.171-9.946-4.618-9.946-8.17 0-14.565 11.012-25.577 13.854V73.18zm0 22.024c5.329-3.197 11.723-9.236 20.96-9.236 8.17 0 14.92 4.973 14.92 13.5 0 6.749-7.46 9.946-12.79 8.88 3.553-1.42 3.461-12.078-5.328-12.078-6.394 0-12.078 5.329-17.762 9.591V95.204z"/><path d="M95.56 36.945c-.356-.71-3.553-4.263-8.881-4.263-23.091 0-28.775 24.156-42.985 24.156-5.683 0-9.236-2.842-10.657-11.012l-7.104 3.552c1.42 3.908 8.525 11.368 20.603 11.368 17.052 0 18.118-13.5 31.617-13.854 5.684-4.618 11.012-7.105 17.407-9.947zM0 0h28.774C28.064 2.842 9.947 11.012 0 4.973V0zm0 8.881s5.684 3.552 5.684 8.17c0 4.974-5.684 7.46-5.684 7.46V8.882zM50.089 0h34.813C73.535 7.105 59.325 7.105 50.09 0z"/></g></svg>