<svg xmlns="http://www.w3.org/2000/svg" width="427.299" height="234.028" viewBox="0 0 680 372.431"><path fill-rule="evenodd" clip-rule="evenodd" fill="#335C32" d="M0 0h680v372.431H0z"/><path fill-rule="evenodd" clip-rule="evenodd" fill="#FFF" d="M231.723 33.477h217.599v215.507H231.723z"/><path fill-rule="evenodd" clip-rule="evenodd" fill="#231F20" d="M241.469 42.646h31.275c-.063 13.193 1.306 24.468 2.357 36.225.179 2.09.477 4.094.399 6.099-.066 1.969-.597 3.874-.597 5.944.021 3.951 2.136 6.612 2.689 9.996.831 5.373.254 10.981.621 16.333.662 10.399 4.261 18.762 7.429 26.985 1.67 4.323 2.467 8.823 3.715 13.488 1.186 4.576 2.583 8.865 4.328 12.862 3.221 7.326 8.5 14.746 13.031 21.438 2.355 3.535 4.27 7.212 7.227 10.016 2.522 2.428 6.141 4.411 8.679 7.157 3.946 4.302 6.374 11.397 11.787 14.508 2.546 1.489 6.571 2.617 10.303 2.451 4.216-.186 8.255-2.617 11.776-3.471 4.009-.94 7.376-.819 9.088-3.261 1.185-1.741 1.481-6.109.83-8.18-2.193-6.777-15.097-3.394-23.531-4.083-5.898-.502-8.908-.186-9.743-5.517-.231-1.74-.463-4.391.854-5.331 1.883-1.326 5.502-.482 9.068-.775 5.057-.506 10.079-1.318 13.613-3.287 1.47-.798 3.264-1.841 4.16-2.868.587-.69 2.634-3.655 2.271-5.329-.633-2.76-10.858-4.249-15.296-3.452-2.969.525-4.24 2.442-6.596 2.638-3.589.308-7.239-2.089-11.802-.612-.565.208-1.186.569-1.616.843-2.844 1.565-3.554 5.54-6.208 6.316-2.569.767-6.498-.481-7.637-1.213-2.526-1.61-6.231-10.732-2.68-13.895.73-.645 1.583-.602 2.257-1.631 1.373-2.166 1.683-6.709 3.929-8.385 1.295-.962 3.909-.789 5.989-1.839 1.365-.689 3.566-2.924 4.14-4.685.52-1.632.797-4.708 0-6.131-.873-1.566-5.855-.79-5.787-3.295.021-2.2 5.266-1.599 7.026-2.638 2.445-1.446 1.839-4.248 3.895-6.525 1.297-1.4 4.951-2.955 7.241-3.284 3.431-.481 6.455.526 7.849-1.008 1.77-1.902.619-5.603-.832-7.355-1.65-2.039-4.449-2.727-5.136-4.708-.862-2.454-.233-6.295-.233-9.207 0-8.507-1.537-17.396-5.157-23.066-.775-1.261-2.113-2.256-3.51-3.263-.752-.602-3.009-2.091-2.878-3.907.069-1.445 1.318-1.838 2.878-2.847 3.611-2.363 7.827-6.755 7.859-12.677 0-1.148-.63-2.55-.41-3.263.232-.853 3.876-3.032 5.357-4.091 2.181-1.578 4.042-2.477 5.778-3.483 8.479-4.784 15.017-8.231 25.612-11.417 4.828-1.456 13.825-3.339 13.825-3.339h26.786l23.211.021v197.446H241.469V42.646zm126.156 23.963c-1.173 1.007-8.069 5.923-6.2 8.572.931 1.282 5.778-.229 8.063-.833a520.427 520.427 0 0015.91-4.292c2.771-.786 6.801-1.224 7.231-3.054.34-1.477-3.786-4.533-5.78-5.725-2.4-1.445-5.413-2.474-7.626-2.255-5.036.515-7.978 4.468-11.598 7.587m-2.469 23.275c-1.139 2.638-3.235 3.373-3.498 6.13-.521 4.729 3.474 6.065 4.117 9.578.451 2.509-1.073 4.96-1.227 6.965-.788 9.709 11.819 14.264 14.054 18.993.301.692.677 1.565.621 2.442-.275 3.995-3.896 1.421-6.43 2.682-1.671.798-1.504 2.824-3.089 5.518-1.429 2.384-5.113 3.808-4.972 6.13.092 1.466 3.157 3.328 3.733 3.677 2.599 1.49 6.538 2.638 10.326 3.875 7.139 2.278 12.252 2.529 14.675 9.197.821 2.288 1.164 6.778 4.117 6.742 2.162-.043 3.468-3.184 4.13-5.526 3.387-11.879 2.702-24.883 3.941-39.838.927-11.506 7.425-19.553 7.425-29.011 0-3.602-1.635-7.007-3.311-8.178-3.939-2.691-13.236-2.114-18.383-.809-1.606.393-4.771 2.506-5.989 1.04-1.185-1.443 1.982-3.493.623-4.521-.711-.537-1.994.458-1.863.427-1.181.351-2.853.668-4.335.394-2.379-.415-3.842-3.625-4.972-4.084-1.318-.58-6.285-.141-6.581 0-2.328 1.028-1.906 5.463-3.112 8.177m-10.537 41.272c-1.15 1.917-2.789 5.813-1.434 7.771 1.409 2.037 7.001 1.347 9.28.199 5.768-2.912 5.425-13.477-1.041-13.271-3.277.067-5.214 2.618-6.805 5.301m-28.899 40.428c-1.683 1.479-4.206 5.793-.645 4.094 1.574-.732 3.687-2.428 4.981-2.638 4.354-.766 6.356 2.245 10.327 1.215 1.626-.438 2.593-2.069 4.099-2.867.774-.373 1.745-.79 2.71-1.019 1.617-.383 6.571.186 7.018-1.008.509-1.379-3.287-2.342-4.341-2.659-3.209-.999-5.354-1.456-8.268-1.247-6.219.479-11.974 2.758-15.881 6.129"/><path fill-rule="evenodd" clip-rule="evenodd" fill="#231F20" d="M295.568 75.105c4.495-.559 10.184.711 13.636 2.473 3.057 1.522 5.37 3.633 5.389 7.97 0 1.521-.318 3.536-.231 5.517.079 1.884.563 3.887.231 5.288-.75 2.869-7.227 7.532-12.206 6.951-3.354-.403-5.667-4.181-8.037-4.268-1.094-.065-3.352 1.399-4.758 2.003-1.085.48-4.283 1.761-4.958-.187-.445-1.227 1.857-5.431 2.467-5.911 2.758-2.268 9.793-1.327 10.329-4.708.828-5.397-9.884-3.306-10.727-6.339-.554-1.97 2.07-2.911 3.297-4.291 1.915-2.208 1.969-4.049 5.568-4.498m20.678 67.009c3.207-.732 1.162 4.62.21 6.756-.932 1.981-1.882 3.951-3.313 4.092-.992.067-2.301-.689-2.476-1.653-.367-1.75 4.026-8.846 5.579-9.195"/><path fill="#FFF" d="M127.301 258.38h12.186v22.974l21.486-22.974h15.937l-24.612 25.706 26.718 29.603h-17.032l-22.497-26.258v26.258h-12.186zm61.257-1.416a6.808 6.808 0 016.806 6.809c0 3.742-3.049 6.781-6.806 6.781-3.752 0-6.795-3.039-6.795-6.781-.001-3.761 3.042-6.809 6.795-6.809m-5.847 18.753h11.725v37.973h-11.725v-37.973zm17.799.004h11.255v5.163h.157c1.564-2.974 5.396-6.105 11.092-6.105 11.882 0 14.064 7.826 14.064 17.975v20.937h-11.724v-18.588c0-4.394-.086-10.012-6.092-10.012-6.086 0-7.022 4.778-7.022 9.694v18.905h-11.73v-37.969zm82.038 34.642c0 14.294-7.268 21.965-21.953 21.965-6.714 0-13.596-1.176-19.069-5.55l6.484-9.686c3.608 3.039 7.593 4.91 12.35 4.91 7.107 0 10.472-3.893 10.472-9.295v-3.676h-.17c-2.652 3.676-7.182 5.004-10.688 5.004-11.255 0-18.676-8.122-18.676-19.604 0-10.08 6.574-19.762 17.354-19.762 6.625 0 11.16 3.203 12.956 5.934h.146v-5.001h10.794v34.761zm-20.156-6.645c5.308 0 9.362-4.453 9.362-9.355 0-4.943-4.055-9.383-9.362-9.383s-9.365 4.439-9.365 9.383c0 4.902 4.058 9.355 9.365 9.355m75.467-31.091c-2.43-2.878-5.947-4.523-10.465-4.523-9.219 0-16.012 7.499-16.012 17.819 0 10.311 6.793 17.802 15.609 17.802 4.922 0 8.909-2.175 11.413-5.934l10.136 7.579c-4.598 6.56-12.406 9.61-19.98 9.61-17.265 0-29.836-11.326-29.836-29.058 0-17.75 12.571-29.076 29.836-29.076 6.175 0 13.975 2.121 18.65 8.124l-9.351 7.657zm32.102 2.037c11.725 0 21.1 7.809 21.1 19.926 0 12.108-9.375 19.928-21.1 19.928s-21.095-7.819-21.095-19.928c.001-12.117 9.371-19.926 21.095-19.926m0 29.54c5.853 0 9.372-3.915 9.372-9.614 0-5.698-3.52-9.61-9.372-9.61s-9.377 3.912-9.377 9.61c0 5.699 3.525 9.614 9.377 9.614m61.085 9.37h-11.242v-5.16h-.154c-1.559 2.972-5.4 6.104-11.104 6.104-11.867 0-14.058-7.825-14.058-17.977v-20.935h11.73v18.602c0 4.366.065 9.996 6.083 9.996 6.103 0 7.028-4.775 7.028-9.705v-18.893h11.716v37.968zm6.117-37.951h11.244v5.159h.172c1.545-2.958 5.39-6.105 11.08-6.105 11.886 0 14.076 7.828 14.076 17.986v20.926h-11.72v-18.592c0-4.377-.088-10.008-6.087-10.008-6.124 0-7.041 4.794-7.041 9.695v18.904h-11.725v-37.965zm68.378 8.88h-10.324v12.648c0 4.061.472 7.034 5.555 7.034 1.245 0 3.759-.147 4.77-1.087v9.761c-2.574.932-5.475 1.177-8.201 1.177-7.828 0-13.828-3.206-13.828-11.483v-18.05h-7.521v-9.376h7.521v-11.244h11.705v11.244h10.324v9.376zm29.376 34.924c-3.117 8.044-4.933 12.571-16.089 12.571-2.962 0-5.943-.465-8.758-1.399l1.562-9.606c1.804.77 3.513 1.168 5.48 1.168 5.294 0 6.167-2.272 7.801-6.4l.86-2.179-16.64-38.296h12.647l9.776 25.088h.164l8.351-25.088h12.033l-17.187 44.141z"/></svg>