<svg xmlns="http://www.w3.org/2000/svg" width="12" height="12" viewBox="0 0 9 9" color-interpolation-filters="sRGB" fill="none" fill-rule="evenodd" font-size="12" overflow="visible" stroke-linecap="square" stroke-miterlimit="3"><path d="M6.18 4.5l2.51-2.51a.79.79 0 000-1.12L8.13.31a.79.79 0 00-1.12 0L4.5 2.82 1.99.31a.79.79 0 00-1.12 0L.31.87a.79.79 0 000 1.12L2.82 4.5.31 7.01a.79.79 0 000 1.12l.56.56c.31.31.81.31 1.12 0L4.5 6.18l2.51 2.51c.31.31.81.31 1.12 0l.56-.56a.79.79 0 000-1.12L6.18 4.5z" fill="red" stroke="#000" stroke-linecap="butt" stroke-width=".25"/></svg>